<?xml version="1.0" encoding="utf-8" ?>
<svg baseProfile="full" height="1024" version="1.1" width="2048" xmlns="http://www.w3.org/2000/svg" xmlns:ev="http://www.w3.org/2001/xml-events" xmlns:xlink="http://www.w3.org/1999/xlink"><defs /><polygon fill="rgb(0,0,0)" points="1668,387 1667,388 1667,389 1666,390 1665,390 1664,391 1664,432 1666,434 1762,434 1763,435 1763,524 1762,525 1763,526 1763,530 1764,531 1768,531 1769,532 1804,532 1805,531 1808,531 1809,530 1811,530 1811,390 1808,387" stroke="none" /><polygon fill="rgb(254,254,254)" points="1561,387 1559,389 1559,650 1621,650 1621,649 1622,648 1622,647 1623,646 1623,586 1624,585 1626,585 1627,586 1627,588 1628,589 1628,590 1629,590 1630,591 1630,593 1632,593 1633,594 1633,596 1634,596 1635,597 1635,598 1636,599 1636,601 1637,601 1638,602 1638,604 1639,605 1640,605 1641,606 1641,607 1642,608 1642,609 1644,611 1644,613 1646,613 1647,614 1647,616 1649,616 1650,617 1650,621 1651,622 1652,622 1653,623 1653,624 1656,627 1656,630 1657,630 1658,631 1658,633 1660,633 1661,634 1661,636 1664,639 1664,641 1665,642 1666,642 1667,643 1667,644 1669,644 1670,645 1670,647 1673,650 1743,650 1743,643 1740,640 1740,638 1739,637 1738,637 1737,636 1737,634 1735,634 1734,633 1734,630 1733,629 1732,629 1731,628 1731,626 1730,626 1729,625 1729,623 1728,623 1726,621 1726,619 1725,618 1725,617 1724,617 1723,616 1723,615 1722,614 1721,614 1720,613 1720,610 1719,609 1718,609 1717,608 1717,606 1716,606 1714,604 1714,603 1712,601 1712,600 1711,599 1711,598 1709,596 1709,595 1708,594 1707,594 1706,593 1706,591 1705,590 1705,589 1704,589 1703,588 1703,586 1701,586 1700,585 1700,583 1699,583 1697,581 1697,578 1696,578 1694,576 1694,574 1693,574 1692,573 1692,572 1691,571 1691,570 1689,568 1689,567 1688,566 1687,566 1686,565 1686,563 1685,563 1683,561 1683,558 1682,558 1680,556 1680,554 1681,553 1682,553 1682,552 1683,551 1683,549 1684,548 1685,548 1686,547 1686,546 1687,545 1688,545 1688,543 1689,542 1689,540 1690,539 1691,539 1692,538 1692,537 1693,536 1694,536 1694,533 1696,531 1697,531 1697,529 1698,528 1699,528 1700,527 1700,523 1701,522 1703,522 1703,520 1704,519 1705,519 1706,518 1706,515 1707,514 1708,514 1709,513 1709,512 1710,511 1711,511 1711,509 1713,507 1713,506 1714,505 1714,504 1716,502 1717,502 1717,500 1719,498 1719,497 1720,496 1720,495 1721,494 1722,494 1723,493 1723,491 1724,490 1725,490 1725,489 1726,488 1726,486 1727,485 1728,485 1729,484 1729,483 1730,482 1731,482 1731,478 1732,477 1733,477 1734,476 1734,475 1735,474 1736,474 1737,473 1737,469 1738,468 1740,468 1740,461 1739,460 1667,460 1666,461 1664,461 1664,464 1662,466 1661,466 1661,468 1660,469 1659,469 1658,470 1658,473 1656,475 1656,477 1655,478 1653,478 1653,480 1652,481 1652,482 1651,483 1650,483 1650,485 1649,486 1648,486 1647,487 1647,490 1645,492 1644,492 1644,494 1643,495 1642,495 1642,496 1639,499 1639,500 1638,501 1638,502 1637,503 1636,503 1636,505 1635,506 1635,507 1633,509 1633,511 1632,512 1630,512 1630,514 1628,516 1628,517 1627,518 1627,519 1625,521 1624,521 1623,520 1623,392 1620,389 1620,387" stroke="none" /><polygon fill="rgb(254,254,254)" points="497,375 496,376 496,377 495,378 495,468 494,469 492,467 492,459 491,458 491,453 490,452 489,452 488,451 488,444 487,444 486,443 486,439 485,438 484,438 483,437 483,433 482,432 481,432 480,431 480,428 479,427 478,427 477,426 477,424 476,424 474,422 474,420 471,417 471,416 470,416 468,414 468,413 467,412 466,412 465,411 465,410 464,410 462,408 462,407 460,407 457,404 456,404 454,402 454,401 450,401 449,400 449,399 448,398 445,398 442,395 439,395 437,393 437,392 433,392 430,389 426,389 425,388 425,387 297,387 296,388 296,650 364,650 365,649 365,648 366,647 366,572 367,571 424,571 427,568 430,568 431,567 432,567 432,566 433,565 437,565 437,564 439,562 443,562 446,559 449,559 449,558 450,557 451,557 452,556 454,556 454,555 456,553 457,553 459,551 461,551 467,545 468,545 468,543 469,542 470,542 471,541 471,540 474,537 474,535 475,534 476,534 477,533 477,532 479,530 480,530 480,526 481,525 483,525 483,520 484,519 486,519 486,515 488,513 488,506 489,505 490,505 491,504 491,500 492,499 492,491 493,490 493,489 494,488 495,489 495,649 496,650 559,650 559,648 560,647 560,572 561,571 563,573 563,584 566,587 566,593 567,594 567,595 569,597 569,601 570,602 571,602 572,603 572,607 573,607 575,609 575,613 576,613 577,614 577,615 578,616 579,616 580,617 580,618 581,619 581,621 584,624 585,624 586,625 586,627 587,627 589,629 589,630 591,630 592,631 592,633 594,633 595,634 595,636 597,636 598,637 598,638 599,638 602,641 603,641 604,642 605,642 606,643 606,644 609,644 610,645 611,645 612,646 612,647 613,647 614,648 617,648 618,649 618,650 623,650 624,651 624,652 625,653 632,653 635,656 675,656 676,655 676,654 677,653 684,653 685,652 685,651 686,650 691,650 693,648 695,648 697,646 698,646 700,644 702,644 703,645 703,650 769,650 769,649 770,648 770,500 771,499 772,500 772,501 774,503 774,507 775,508 776,508 777,509 777,513 779,515 779,518 780,519 780,521 781,521 782,522 782,526 783,527 783,528 784,528 785,529 785,533 787,533 788,534 788,539 789,540 789,541 790,541 791,542 791,547 792,547 794,549 794,553 795,553 796,554 796,557 797,558 797,560 799,562 799,564 800,565 800,567 801,567 802,568 802,573 804,573 805,574 805,579 806,580 806,581 807,581 808,582 808,587 810,587 811,588 811,593 813,593 814,594 814,600 816,602 816,604 817,605 817,607 818,607 819,608 819,611 820,612 820,613 821,613 822,614 822,619 823,620 823,621 824,621 825,622 825,626 826,627 827,627 828,628 828,633 829,633 830,634 830,636 831,637 831,638 830,639 830,642 829,643 828,643 828,647 827,648 826,648 825,649 825,650 824,651 822,651 822,653 821,654 820,654 819,655 819,656 818,657 814,657 814,659 813,660 806,660 806,661 805,662 790,662 789,663 788,663 788,721 791,724 818,724 819,723 820,723 820,722 821,721 832,721 832,720 833,719 838,719 839,718 840,718 842,716 844,716 845,715 846,715 848,713 852,713 852,711 853,710 855,710 858,707 860,707 861,706 861,705 862,704 864,704 864,702 865,701 867,701 867,700 868,699 869,699 870,698 870,697 871,696 872,696 872,695 874,693 875,693 875,691 876,690 878,690 878,688 879,687 880,687 880,686 881,685 881,683 882,682 883,682 884,681 884,680 887,677 887,674 888,673 889,673 889,671 890,670 890,668 891,667 892,667 892,666 893,665 893,663 895,661 895,657 896,656 897,656 898,655 898,649 900,647 901,647 901,642 903,640 903,639 904,638 904,634 906,632 906,631 907,630 907,625 908,624 909,624 909,617 910,616 912,616 912,611 914,609 914,608 915,607 915,602 916,601 917,601 918,600 918,594 919,593 920,593 921,592 921,586 922,585 923,585 923,583 924,582 924,578 927,575 927,571 929,569 929,565 930,564 930,563 932,561 932,554 933,553 935,553 935,546 936,545 937,545 938,544 938,540 940,538 940,537 941,536 941,531 942,530 943,530 943,528 944,527 944,523 945,522 946,522 946,519 947,518 947,515 949,513 949,510 950,509 950,508 951,507 951,506 952,505 952,500 953,499 954,499 955,498 956,499 956,649 957,650 1020,650 1020,646 1022,644 1024,644 1025,645 1026,645 1027,646 1027,647 1028,647 1029,648 1032,648 1033,649 1033,650 1038,650 1039,651 1039,652 1040,652 1041,653 1047,653 1050,656 1088,656 1089,655 1090,655 1092,653 1098,653 1099,652 1099,651 1100,650 1105,650 1105,649 1106,648 1109,648 1110,647 1111,647 1111,646 1112,645 1113,645 1114,644 1117,644 1117,643 1118,642 1119,642 1120,641 1120,640 1121,639 1123,639 1124,638 1125,638 1125,637 1126,636 1127,636 1128,635 1128,634 1129,633 1131,633 1131,631 1132,630 1134,630 1134,628 1135,627 1137,627 1137,625 1138,624 1139,624 1139,623 1140,622 1140,621 1143,618 1143,617 1144,616 1145,616 1146,615 1146,613 1147,612 1148,612 1148,608 1149,607 1151,607 1151,603 1152,602 1153,602 1154,601 1154,597 1156,595 1156,594 1157,593 1157,588 1158,587 1159,587 1160,588 1160,589 1161,590 1161,593 1163,593 1164,594 1164,600 1166,602 1166,604 1169,607 1169,610 1171,610 1172,611 1172,615 1173,616 1174,616 1175,617 1175,619 1177,619 1178,620 1178,622 1179,622 1180,623 1180,624 1181,625 1182,625 1183,626 1183,627 1184,628 1185,628 1186,629 1186,630 1188,630 1189,631 1189,633 1191,633 1192,634 1192,636 1194,636 1195,637 1195,638 1196,639 1198,639 1201,642 1203,642 1204,643 1204,644 1207,644 1210,647 1212,647 1213,648 1215,648 1217,650 1223,650 1224,651 1224,652 1225,652 1226,653 1235,653 1236,654 1236,655 1237,655 1238,656 1275,656 1276,655 1276,654 1277,653 1287,653 1287,652 1289,650 1296,650 1296,649 1297,648 1301,648 1303,646 1304,646 1306,644 1308,644 1309,643 1310,643 1311,642 1313,642 1313,640 1314,639 1316,639 1317,638 1318,638 1320,636 1321,636 1322,635 1322,634 1323,633 1324,633 1325,632 1325,631 1326,630 1328,630 1328,629 1329,628 1330,628 1330,627 1332,625 1333,625 1333,623 1334,622 1336,622 1336,620 1337,619 1339,619 1339,617 1340,616 1341,616 1342,615 1342,614 1344,612 1344,610 1348,606 1348,603 1349,602 1350,602 1350,597 1351,596 1353,596 1353,591 1354,590 1356,590 1360,594 1360,599 1361,599 1362,600 1362,603 1363,604 1363,605 1364,605 1365,606 1365,608 1366,609 1366,610 1367,610 1368,611 1368,613 1369,614 1369,615 1370,615 1371,616 1371,618 1372,619 1373,619 1374,620 1374,622 1376,622 1377,623 1377,624 1378,625 1379,625 1380,626 1380,628 1381,628 1383,630 1384,630 1385,631 1385,633 1387,633 1388,634 1388,635 1389,636 1390,636 1391,637 1391,638 1393,638 1394,639 1396,639 1397,640 1397,642 1400,642 1402,644 1403,644 1404,645 1405,645 1407,647 1408,647 1409,648 1413,648 1414,649 1414,650 1420,650 1423,653 1433,653 1434,654 1434,655 1435,656 1472,656 1473,655 1474,655 1476,653 1484,653 1485,652 1486,652 1486,651 1487,650 1494,650 1496,648 1498,648 1499,647 1501,647 1501,646 1502,645 1503,645 1504,644 1506,644 1506,643 1507,642 1511,642 1512,641 1512,640 1513,639 1515,639 1515,637 1516,636 1520,636 1520,634 1521,633 1523,633 1524,632 1524,631 1525,630 1526,630 1526,629 1527,628 1528,628 1532,624 1532,623 1533,622 1534,622 1535,621 1535,620 1538,617 1538,614 1539,613 1541,613 1541,611 1542,610 1543,610 1543,609 1544,608 1544,606 1546,604 1546,603 1547,602 1547,600 1548,599 1549,599 1549,592 1551,590 1552,590 1552,585 1553,584 1553,582 1554,581 1554,580 1555,579 1555,561 1557,559 1557,550 1556,550 1555,549 1555,530 1553,528 1553,526 1552,525 1552,519 1551,518 1550,518 1549,517 1549,512 1548,512 1547,511 1547,507 1546,506 1545,506 1544,505 1544,502 1541,499 1541,498 1540,497 1540,496 1539,496 1538,495 1538,493 1537,492 1536,492 1535,491 1535,489 1533,489 1532,488 1532,486 1531,486 1529,484 1529,483 1528,483 1527,482 1527,481 1526,480 1525,480 1524,479 1524,478 1522,478 1521,477 1521,476 1520,475 1519,475 1516,472 1513,472 1512,471 1512,469 1510,469 1509,468 1508,468 1507,467 1507,466 1504,466 1502,464 1500,464 1499,463 1497,463 1495,461 1493,461 1492,460 1490,460 1488,458 1479,458 1478,457 1478,456 1477,455 1429,455 1429,456 1427,458 1419,458 1418,459 1417,459 1416,460 1414,460 1413,461 1411,461 1411,462 1410,463 1407,463 1406,464 1405,464 1403,466 1400,466 1400,467 1398,469 1396,469 1395,470 1394,470 1394,471 1393,472 1391,472 1391,474 1390,475 1388,475 1388,476 1386,478 1384,478 1383,479 1383,480 1382,481 1381,481 1380,482 1380,483 1379,484 1378,484 1378,485 1377,486 1377,488 1376,489 1374,489 1374,491 1373,492 1372,492 1371,493 1371,494 1369,496 1369,497 1368,498 1368,500 1367,501 1366,501 1366,502 1365,503 1365,505 1363,507 1363,509 1362,510 1362,512 1361,513 1360,513 1360,520 1359,521 1358,521 1358,522 1357,523 1355,523 1353,521 1353,516 1352,515 1351,515 1350,514 1350,509 1349,509 1348,508 1348,504 1347,503 1347,502 1344,499 1344,498 1343,498 1342,497 1342,495 1341,494 1341,493 1340,493 1339,492 1339,490 1338,489 1337,489 1336,488 1336,487 1335,486 1334,486 1333,485 1333,484 1332,483 1331,483 1330,482 1330,481 1329,480 1328,480 1327,479 1327,478 1325,478 1324,477 1324,475 1321,475 1319,473 1319,472 1317,472 1316,471 1316,469 1312,469 1310,467 1310,466 1308,466 1307,465 1307,464 1305,464 1304,463 1302,463 1301,462 1300,462 1299,461 1298,461 1297,460 1294,460 1293,459 1293,458 1284,458 1281,455 1264,455 1262,453 1252,453 1251,454 1250,454 1249,455 1233,455 1232,456 1232,457 1231,458 1222,458 1220,460 1217,460 1216,461 1215,461 1213,463 1211,463 1210,464 1208,464 1206,466 1204,466 1203,467 1203,468 1202,469 1198,469 1198,471 1197,472 1195,472 1195,473 1193,475 1191,475 1188,478 1187,478 1187,479 1185,481 1184,481 1184,482 1183,483 1182,483 1181,484 1181,485 1179,487 1178,487 1178,489 1175,492 1175,494 1174,495 1172,495 1172,497 1170,499 1170,500 1169,501 1169,502 1167,504 1167,505 1166,506 1166,508 1164,510 1164,516 1163,517 1162,517 1161,518 1161,521 1160,522 1160,523 1159,524 1157,522 1157,516 1156,515 1155,515 1154,514 1154,507 1153,507 1151,505 1151,502 1150,501 1149,501 1148,500 1148,498 1147,498 1146,497 1146,495 1145,494 1145,492 1144,492 1143,491 1143,490 1142,489 1141,489 1140,488 1140,487 1139,486 1138,486 1137,485 1137,483 1135,483 1134,482 1134,480 1133,480 1131,478 1129,478 1128,477 1128,475 1127,475 1126,474 1126,473 1125,472 1124,472 1123,471 1123,470 1122,469 1119,469 1117,467 1117,466 1115,466 1113,464 1112,464 1111,463 1109,463 1108,462 1108,461 1106,461 1105,460 1103,460 1101,458 1095,458 1093,456 1092,456 1091,455 1080,455 1079,454 1079,453 1077,453 1076,452 1060,452 1059,453 1059,454 1058,455 1045,455 1045,456 1043,458 1037,458 1035,460 1033,460 1032,461 1030,461 1030,462 1029,463 1028,463 1027,464 1025,464 1025,465 1024,466 1021,466 1020,465 1020,389 1018,387 959,387 956,390 956,459 955,460 896,460 895,461 893,461 893,467 891,469 891,471 890,472 890,477 889,478 888,478 888,479 887,480 887,485 885,487 885,494 884,495 883,495 882,496 882,502 879,505 879,511 877,513 877,514 876,515 876,520 875,521 874,521 874,523 873,524 873,529 871,531 871,533 870,534 870,539 869,540 868,540 868,548 867,549 865,549 865,550 864,551 863,550 863,549 862,549 861,548 861,543 860,543 859,542 859,540 858,539 858,535 857,535 856,534 856,530 855,529 855,527 853,525 853,522 852,521 852,520 850,518 850,513 849,512 848,512 847,511 847,505 846,504 846,503 845,503 844,502 844,496 843,495 842,495 841,494 841,489 840,489 839,488 839,487 838,486 838,481 837,481 836,480 836,474 835,473 835,472 834,472 833,471 833,468 832,467 832,465 830,463 830,461 829,460 706,460 706,461 705,462 705,463 704,464 703,464 703,466 702,467 701,466 699,466 697,464 696,464 695,463 694,463 693,462 693,461 691,461 690,460 689,460 687,458 682,458 681,457 681,456 680,456 679,455 668,455 667,454 667,453 666,453 665,452 641,452 640,453 639,453 637,455 628,455 627,456 626,456 626,457 625,458 620,458 618,460 616,460 615,461 614,461 612,463 611,463 610,464 609,464 609,465 608,466 606,466 605,467 604,467 604,468 603,469 601,469 600,470 600,471 599,472 598,472 597,473 597,474 596,475 595,475 595,477 594,478 592,478 592,479 591,480 590,480 589,481 589,482 588,483 587,483 586,484 586,485 585,486 584,486 583,487 583,488 581,490 581,492 580,493 580,494 579,495 578,495 578,496 577,497 577,498 575,500 575,502 572,505 572,509 569,512 569,517 568,518 567,518 567,519 566,520 566,526 565,527 564,527 564,528 563,529 563,540 561,542 560,541 560,379 559,378 559,376 558,375" stroke="none" /><polygon fill="rgb(0,0,0)" points="1447,517 1462,517 1464,519 1470,519 1471,520 1471,522 1474,522 1476,524 1476,525 1478,525 1479,526 1479,527 1480,528 1481,528 1482,529 1482,532 1483,533 1484,533 1485,534 1485,537 1486,538 1486,539 1487,539 1488,540 1488,547 1489,547 1490,548 1490,562 1488,564 1488,571 1487,572 1486,572 1485,573 1485,576 1484,577 1483,577 1482,578 1482,579 1480,581 1480,582 1478,584 1477,584 1477,585 1476,586 1474,586 1474,587 1473,588 1472,588 1471,589 1469,589 1467,591 1463,591 1462,592 1458,592 1456,594 1451,594 1449,592 1446,592 1445,591 1440,591 1438,589 1437,589 1434,586 1432,586 1430,584 1430,583 1428,583 1427,582 1427,579 1426,578 1425,578 1424,577 1424,575 1423,574 1422,574 1421,573 1421,567 1419,565 1419,543 1420,542 1421,542 1421,537 1422,536 1423,536 1424,535 1424,532 1425,531 1426,531 1427,530 1427,529 1428,528 1429,528 1430,527 1430,526 1431,525 1432,525 1433,524 1433,523 1434,522 1437,522 1438,521 1438,520 1439,519 1445,519" stroke="none" /><polygon fill="rgb(0,0,0)" points="1254,517 1260,517 1261,518 1262,518 1263,519 1271,519 1272,520 1272,522 1275,522 1278,525 1279,525 1280,526 1280,527 1281,528 1282,528 1283,529 1283,530 1284,530 1286,532 1286,533 1287,533 1289,535 1289,538 1291,540 1291,542 1292,543 1292,545 1293,545 1294,546 1294,565 1293,566 1292,566 1292,567 1291,568 1291,571 1290,572 1289,572 1289,576 1288,577 1286,577 1286,579 1285,580 1283,580 1283,582 1282,583 1280,583 1280,584 1278,586 1275,586 1275,587 1274,588 1273,588 1272,589 1269,589 1269,590 1268,591 1246,591 1245,590 1245,589 1242,589 1241,588 1240,588 1239,587 1239,586 1236,586 1233,583 1232,583 1231,582 1231,581 1230,580 1229,580 1228,579 1228,577 1227,577 1225,575 1225,572 1224,572 1223,571 1223,569 1222,568 1222,565 1221,564 1221,563 1220,563 1219,562 1219,546 1220,545 1222,545 1222,542 1223,541 1223,540 1225,538 1225,535 1227,533 1228,533 1228,532 1232,528 1233,528 1233,527 1235,525 1236,525 1239,522 1242,522 1242,520 1243,519 1252,519" stroke="none" /><polygon fill="rgb(0,0,0)" points="1049,517 1069,517 1070,518 1070,519 1075,519 1076,520 1076,521 1077,522 1080,522 1081,523 1081,524 1082,525 1083,525 1084,526 1084,527 1085,528 1086,528 1087,529 1087,530 1092,535 1092,536 1093,537 1093,539 1094,539 1095,540 1095,545 1096,546 1096,547 1097,547 1098,548 1098,562 1097,563 1096,563 1096,564 1095,565 1095,570 1092,573 1092,576 1091,577 1090,577 1089,578 1089,579 1088,580 1087,580 1087,582 1086,583 1084,583 1084,585 1083,586 1081,586 1079,588 1078,588 1077,589 1075,589 1075,590 1074,591 1070,591 1069,592 1067,592 1067,593 1066,594 1051,594 1050,593 1049,593 1048,592 1047,592 1046,591 1043,591 1042,590 1042,589 1040,589 1039,588 1038,588 1037,587 1037,586 1035,586 1034,585 1034,584 1033,584 1028,579 1028,578 1027,578 1026,577 1026,575 1025,574 1024,574 1023,573 1023,569 1022,569 1021,568 1021,564 1020,563 1020,548 1021,547 1021,543 1022,542 1023,542 1023,537 1024,536 1026,536 1026,532 1027,531 1029,531 1029,529 1030,528 1032,528 1032,526 1033,525 1035,525 1038,522 1040,522 1040,520 1041,519 1047,519" stroke="none" /><polygon fill="rgb(0,0,0)" points="658,515 659,514 668,514 669,515 669,516 671,516 672,517 676,517 678,519 682,519 683,520 683,522 685,522 686,523 686,524 687,525 689,525 691,527 691,528 692,528 694,530 694,531 695,532 695,533 696,533 697,534 697,536 698,536 700,538 700,542 701,542 702,543 702,544 703,545 703,554 704,555 704,557 703,558 703,567 700,570 700,573 698,575 697,575 697,578 695,580 694,580 694,582 693,583 691,583 691,584 689,586 687,586 686,587 686,588 685,589 683,589 683,590 682,591 680,591 679,592 677,592 677,593 676,594 656,594 655,593 654,593 652,591 649,591 648,590 648,589 646,589 645,588 645,587 644,586 643,586 642,585 642,584 641,584 639,582 639,581 638,581 636,579 636,578 634,576 634,575 633,574 632,574 631,573 631,569 630,569 628,567 628,560 627,559 627,557 625,555 625,551 627,549 627,547 628,546 628,540 629,539 630,539 630,537 631,536 631,534 632,533 633,533 634,532 634,531 636,529 636,527 637,526 638,526 639,525 640,525 643,522 644,522 645,521 645,520 646,519 650,519 650,518 651,517 655,517 656,516 658,516" stroke="none" /><polygon fill="rgb(0,0,0)" points="366,452 367,451 402,451 404,453 404,454 410,454 411,455 411,456 412,456 413,457 414,457 416,459 416,460 417,460 418,461 418,462 420,462 421,463 421,467 422,468 423,468 424,469 424,486 422,488 422,489 421,490 421,494 420,495 418,495 418,497 417,498 416,498 414,500 413,500 412,501 411,501 411,502 410,503 405,503 404,504 404,505 403,506 367,506 366,505" stroke="none" /></svg>